<mxfile host="app.diagrams.net" modified="2023-03-29T15:13:54.748Z" agent="Mozilla/5.0 (Macintosh; Intel Mac OS X 10_15_7) AppleWebKit/537.36 (KHTML, like Gecko) Chrome/111.0.0.0 Safari/537.36" etag="zqDbsMDWCv3ijkXzunLe" version="21.1.1" type="device">
  <diagram name="Page-1" id="1B5X5wg8gFjwyHXs4HcD">
    <mxGraphModel dx="499" dy="437" grid="1" gridSize="10" guides="1" tooltips="1" connect="1" arrows="1" fold="1" page="1" pageScale="1" pageWidth="850" pageHeight="1100" math="0" shadow="0">
      <root>
        <mxCell id="0" />
        <mxCell id="1" parent="0" />
        <mxCell id="17Se1o1GfbrU2LIGd_qw-42" value="" style="group" vertex="1" connectable="0" parent="1">
          <mxGeometry x="80" y="30" width="598.4300000000001" height="303.5" as="geometry" />
        </mxCell>
        <mxCell id="17Se1o1GfbrU2LIGd_qw-1" value="" style="image;aspect=fixed;perimeter=ellipsePerimeter;html=1;align=center;shadow=0;dashed=0;spacingTop=3;image=img/lib/active_directory/databases.svg;" vertex="1" parent="17Se1o1GfbrU2LIGd_qw-42">
          <mxGeometry y="163.5" width="142.86" height="140" as="geometry" />
        </mxCell>
        <mxCell id="17Se1o1GfbrU2LIGd_qw-2" value="" style="sketch=0;outlineConnect=0;fontColor=#232F3E;gradientColor=none;fillColor=#4D27AA;strokeColor=none;dashed=0;verticalLabelPosition=bottom;verticalAlign=top;align=center;html=1;fontSize=12;fontStyle=0;aspect=fixed;pointerEvents=1;shape=mxgraph.aws4.data_exchange_for_apis;" vertex="1" parent="17Se1o1GfbrU2LIGd_qw-42">
          <mxGeometry x="220.43" y="160" width="167.06" height="143.5" as="geometry" />
        </mxCell>
        <mxCell id="17Se1o1GfbrU2LIGd_qw-3" value="Database" style="text;html=1;strokeColor=none;fillColor=none;align=center;verticalAlign=middle;whiteSpace=wrap;rounded=0;" vertex="1" parent="17Se1o1GfbrU2LIGd_qw-42">
          <mxGeometry x="41.43000000000001" y="130" width="60" height="30" as="geometry" />
        </mxCell>
        <mxCell id="17Se1o1GfbrU2LIGd_qw-4" value="API" style="text;html=1;strokeColor=none;fillColor=none;align=center;verticalAlign=middle;whiteSpace=wrap;rounded=0;" vertex="1" parent="17Se1o1GfbrU2LIGd_qw-42">
          <mxGeometry x="280.43" y="130" width="60" height="30" as="geometry" />
        </mxCell>
        <mxCell id="17Se1o1GfbrU2LIGd_qw-10" value="" style="outlineConnect=0;dashed=0;verticalLabelPosition=bottom;verticalAlign=top;align=center;html=1;shape=mxgraph.aws3.android;fillColor=#8CC64F;gradientColor=none;" vertex="1" parent="17Se1o1GfbrU2LIGd_qw-42">
          <mxGeometry x="500.43" y="179" width="90" height="101" as="geometry" />
        </mxCell>
        <mxCell id="17Se1o1GfbrU2LIGd_qw-25" value="" style="group" vertex="1" connectable="0" parent="17Se1o1GfbrU2LIGd_qw-42">
          <mxGeometry x="150.43" y="202" width="70" height="38" as="geometry" />
        </mxCell>
        <mxCell id="17Se1o1GfbrU2LIGd_qw-22" value="" style="endArrow=classic;html=1;rounded=0;entryX=-0.072;entryY=0.293;entryDx=0;entryDy=0;entryPerimeter=0;" edge="1" parent="17Se1o1GfbrU2LIGd_qw-25" target="17Se1o1GfbrU2LIGd_qw-2">
          <mxGeometry width="50" height="50" relative="1" as="geometry">
            <mxPoint as="sourcePoint" />
            <mxPoint x="80" y="158" as="targetPoint" />
          </mxGeometry>
        </mxCell>
        <mxCell id="17Se1o1GfbrU2LIGd_qw-24" value="" style="endArrow=classic;html=1;rounded=0;entryX=-0.072;entryY=0.293;entryDx=0;entryDy=0;entryPerimeter=0;" edge="1" parent="17Se1o1GfbrU2LIGd_qw-25">
          <mxGeometry width="50" height="50" relative="1" as="geometry">
            <mxPoint x="70" y="38" as="sourcePoint" />
            <mxPoint y="38" as="targetPoint" />
          </mxGeometry>
        </mxCell>
        <mxCell id="17Se1o1GfbrU2LIGd_qw-35" value="" style="endArrow=classic;html=1;rounded=0;" edge="1" parent="17Se1o1GfbrU2LIGd_qw-42">
          <mxGeometry width="50" height="50" relative="1" as="geometry">
            <mxPoint x="390.43" y="210" as="sourcePoint" />
            <mxPoint x="470.43" y="210" as="targetPoint" />
          </mxGeometry>
        </mxCell>
        <mxCell id="17Se1o1GfbrU2LIGd_qw-36" value="" style="endArrow=classic;html=1;rounded=0;" edge="1" parent="17Se1o1GfbrU2LIGd_qw-42">
          <mxGeometry width="50" height="50" relative="1" as="geometry">
            <mxPoint x="480.43" y="240" as="sourcePoint" />
            <mxPoint x="400.43" y="240" as="targetPoint" />
          </mxGeometry>
        </mxCell>
        <mxCell id="17Se1o1GfbrU2LIGd_qw-37" value="Node.js Application" style="text;html=1;strokeColor=none;fillColor=none;align=center;verticalAlign=middle;whiteSpace=wrap;rounded=0;" vertex="1" parent="17Se1o1GfbrU2LIGd_qw-42">
          <mxGeometry x="510.43" y="140" width="60" height="30" as="geometry" />
        </mxCell>
        <mxCell id="17Se1o1GfbrU2LIGd_qw-38" value="" style="sketch=0;outlineConnect=0;fontColor=#232F3E;gradientColor=none;fillColor=#232F3D;strokeColor=none;dashed=0;verticalLabelPosition=bottom;verticalAlign=top;align=center;html=1;fontSize=12;fontStyle=0;aspect=fixed;pointerEvents=1;shape=mxgraph.aws4.client;" vertex="1" parent="17Se1o1GfbrU2LIGd_qw-42">
          <mxGeometry x="520.4300000000001" y="30" width="78" height="76" as="geometry" />
        </mxCell>
        <mxCell id="17Se1o1GfbrU2LIGd_qw-39" value="" style="endArrow=classic;html=1;rounded=0;" edge="1" parent="17Se1o1GfbrU2LIGd_qw-42">
          <mxGeometry width="50" height="50" relative="1" as="geometry">
            <mxPoint x="390.43" y="140" as="sourcePoint" />
            <mxPoint x="510.43" y="50" as="targetPoint" />
          </mxGeometry>
        </mxCell>
        <mxCell id="17Se1o1GfbrU2LIGd_qw-40" value="" style="endArrow=classic;html=1;rounded=0;" edge="1" parent="17Se1o1GfbrU2LIGd_qw-42">
          <mxGeometry width="50" height="50" relative="1" as="geometry">
            <mxPoint x="510.43" y="70" as="sourcePoint" />
            <mxPoint x="410" y="150" as="targetPoint" />
          </mxGeometry>
        </mxCell>
        <mxCell id="17Se1o1GfbrU2LIGd_qw-41" value="Angular Application" style="text;html=1;strokeColor=none;fillColor=none;align=center;verticalAlign=middle;whiteSpace=wrap;rounded=0;" vertex="1" parent="17Se1o1GfbrU2LIGd_qw-42">
          <mxGeometry x="529.4300000000001" width="60" height="30" as="geometry" />
        </mxCell>
        <mxCell id="17Se1o1GfbrU2LIGd_qw-43" value="" style="outlineConnect=0;dashed=0;verticalLabelPosition=bottom;verticalAlign=top;align=center;html=1;shape=mxgraph.aws3.users;fillColor=#D2D3D3;gradientColor=none;" vertex="1" parent="1">
          <mxGeometry x="720" y="903.5" width="66" height="63" as="geometry" />
        </mxCell>
        <mxCell id="17Se1o1GfbrU2LIGd_qw-47" style="edgeStyle=orthogonalEdgeStyle;rounded=0;orthogonalLoop=1;jettySize=auto;html=1;exitX=1;exitY=0.5;exitDx=0;exitDy=0;entryX=0;entryY=0.5;entryDx=0;entryDy=0;" edge="1" parent="1" source="17Se1o1GfbrU2LIGd_qw-44" target="17Se1o1GfbrU2LIGd_qw-46">
          <mxGeometry relative="1" as="geometry" />
        </mxCell>
        <mxCell id="17Se1o1GfbrU2LIGd_qw-44" value="" style="image;aspect=fixed;perimeter=ellipsePerimeter;html=1;align=center;shadow=0;dashed=0;fontColor=#4277BB;labelBackgroundColor=default;fontSize=12;spacingTop=3;image=img/lib/ibm/users/browser.svg;" vertex="1" parent="1">
          <mxGeometry x="180" y="581.5" width="60" height="60" as="geometry" />
        </mxCell>
        <mxCell id="17Se1o1GfbrU2LIGd_qw-49" style="edgeStyle=orthogonalEdgeStyle;rounded=0;orthogonalLoop=1;jettySize=auto;html=1;exitX=1;exitY=0.5;exitDx=0;exitDy=0;entryX=0;entryY=0.5;entryDx=0;entryDy=0;" edge="1" parent="1" source="17Se1o1GfbrU2LIGd_qw-46" target="17Se1o1GfbrU2LIGd_qw-48">
          <mxGeometry relative="1" as="geometry" />
        </mxCell>
        <mxCell id="17Se1o1GfbrU2LIGd_qw-46" value="" style="image;html=1;image=img/lib/clip_art/computers/Server_Rack_Empty_128x128.png" vertex="1" parent="1">
          <mxGeometry x="330" y="571.5" width="80" height="80" as="geometry" />
        </mxCell>
        <mxCell id="17Se1o1GfbrU2LIGd_qw-55" style="edgeStyle=orthogonalEdgeStyle;rounded=0;orthogonalLoop=1;jettySize=auto;html=1;exitX=1;exitY=0.5;exitDx=0;exitDy=0;entryX=-0.017;entryY=0.487;entryDx=0;entryDy=0;entryPerimeter=0;" edge="1" parent="1" source="17Se1o1GfbrU2LIGd_qw-48" target="17Se1o1GfbrU2LIGd_qw-54">
          <mxGeometry relative="1" as="geometry" />
        </mxCell>
        <mxCell id="17Se1o1GfbrU2LIGd_qw-48" value="" style="shape=image;html=1;verticalAlign=top;verticalLabelPosition=bottom;labelBackgroundColor=#ffffff;imageAspect=0;aspect=fixed;image=https://cdn2.iconfinder.com/data/icons/boxicons-solid-vol-1/24/bxs-cog-128.png" vertex="1" parent="1">
          <mxGeometry x="490" y="565" width="92.5" height="92.5" as="geometry" />
        </mxCell>
        <mxCell id="17Se1o1GfbrU2LIGd_qw-50" value="Users" style="text;html=1;strokeColor=none;fillColor=none;align=center;verticalAlign=middle;whiteSpace=wrap;rounded=0;" vertex="1" parent="1">
          <mxGeometry x="58" y="548" width="60" height="30" as="geometry" />
        </mxCell>
        <mxCell id="17Se1o1GfbrU2LIGd_qw-51" value="Browser" style="text;html=1;strokeColor=none;fillColor=none;align=center;verticalAlign=middle;whiteSpace=wrap;rounded=0;" vertex="1" parent="1">
          <mxGeometry x="180" y="541.5" width="60" height="30" as="geometry" />
        </mxCell>
        <mxCell id="17Se1o1GfbrU2LIGd_qw-52" value="Server" style="text;html=1;strokeColor=none;fillColor=none;align=center;verticalAlign=middle;whiteSpace=wrap;rounded=0;" vertex="1" parent="1">
          <mxGeometry x="340" y="535" width="60" height="30" as="geometry" />
        </mxCell>
        <mxCell id="17Se1o1GfbrU2LIGd_qw-53" value="Middleware" style="text;html=1;strokeColor=none;fillColor=none;align=center;verticalAlign=middle;whiteSpace=wrap;rounded=0;" vertex="1" parent="1">
          <mxGeometry x="500" y="535" width="60" height="30" as="geometry" />
        </mxCell>
        <mxCell id="17Se1o1GfbrU2LIGd_qw-67" style="edgeStyle=orthogonalEdgeStyle;rounded=0;orthogonalLoop=1;jettySize=auto;html=1;entryX=1;entryY=0.5;entryDx=0;entryDy=0;" edge="1" parent="1" source="17Se1o1GfbrU2LIGd_qw-54" target="17Se1o1GfbrU2LIGd_qw-61">
          <mxGeometry relative="1" as="geometry" />
        </mxCell>
        <mxCell id="17Se1o1GfbrU2LIGd_qw-54" value="" style="image;points=[];aspect=fixed;html=1;align=center;shadow=0;dashed=0;image=img/lib/allied_telesis/security/Router_VPN.svg;" vertex="1" parent="1">
          <mxGeometry x="700" y="591.7" width="55.800000000000004" height="39.6" as="geometry" />
        </mxCell>
        <mxCell id="17Se1o1GfbrU2LIGd_qw-56" value="Visitor enters URL into browser" style="text;html=1;strokeColor=none;fillColor=none;align=center;verticalAlign=middle;whiteSpace=wrap;rounded=0;" vertex="1" parent="1">
          <mxGeometry x="110" y="520" width="80" height="30" as="geometry" />
        </mxCell>
        <mxCell id="17Se1o1GfbrU2LIGd_qw-57" value="Browser requests URL from server" style="text;html=1;strokeColor=none;fillColor=none;align=center;verticalAlign=middle;whiteSpace=wrap;rounded=0;" vertex="1" parent="1">
          <mxGeometry x="240" y="530" width="80" height="30" as="geometry" />
        </mxCell>
        <mxCell id="17Se1o1GfbrU2LIGd_qw-58" value="Express runs request through all moddleware is specified in app.js" style="text;html=1;strokeColor=none;fillColor=none;align=center;verticalAlign=middle;whiteSpace=wrap;rounded=0;" vertex="1" parent="1">
          <mxGeometry x="461.25" y="482.5" width="150" height="47.5" as="geometry" />
        </mxCell>
        <mxCell id="17Se1o1GfbrU2LIGd_qw-59" value="Express checks and matches required route" style="text;html=1;strokeColor=none;fillColor=none;align=center;verticalAlign=middle;whiteSpace=wrap;rounded=0;" vertex="1" parent="1">
          <mxGeometry x="700" y="520" width="120" height="40" as="geometry" />
        </mxCell>
        <mxCell id="17Se1o1GfbrU2LIGd_qw-60" value="Router" style="text;html=1;strokeColor=none;fillColor=none;align=center;verticalAlign=middle;whiteSpace=wrap;rounded=0;" vertex="1" parent="1">
          <mxGeometry x="740" y="622" width="60" height="30" as="geometry" />
        </mxCell>
        <mxCell id="17Se1o1GfbrU2LIGd_qw-65" value="" style="group" vertex="1" connectable="0" parent="1">
          <mxGeometry x="519" y="713.5" width="181" height="111" as="geometry" />
        </mxCell>
        <mxCell id="17Se1o1GfbrU2LIGd_qw-61" value="" style="shape=image;html=1;verticalAlign=top;verticalLabelPosition=bottom;labelBackgroundColor=#ffffff;imageAspect=0;aspect=fixed;image=https://cdn0.iconfinder.com/data/icons/devices-42/512/Normal_LCD-128.png" vertex="1" parent="17Se1o1GfbrU2LIGd_qw-65">
          <mxGeometry x="100" y="30" width="81" height="81" as="geometry" />
        </mxCell>
        <mxCell id="17Se1o1GfbrU2LIGd_qw-62" value="+" style="text;html=1;strokeColor=none;fillColor=none;align=center;verticalAlign=middle;whiteSpace=wrap;rounded=0;" vertex="1" parent="17Se1o1GfbrU2LIGd_qw-65">
          <mxGeometry x="80" y="55.5" width="20" height="30" as="geometry" />
        </mxCell>
        <mxCell id="17Se1o1GfbrU2LIGd_qw-63" value="" style="image;aspect=fixed;perimeter=ellipsePerimeter;html=1;align=center;shadow=0;dashed=0;spacingTop=3;image=img/lib/active_directory/database.svg;" vertex="1" parent="17Se1o1GfbrU2LIGd_qw-65">
          <mxGeometry y="42.75" width="75" height="55.5" as="geometry" />
        </mxCell>
        <mxCell id="17Se1o1GfbrU2LIGd_qw-64" value="Data + View" style="text;html=1;strokeColor=none;fillColor=none;align=center;verticalAlign=middle;whiteSpace=wrap;rounded=0;" vertex="1" parent="17Se1o1GfbrU2LIGd_qw-65">
          <mxGeometry x="50" width="84" height="30" as="geometry" />
        </mxCell>
        <mxCell id="17Se1o1GfbrU2LIGd_qw-74" style="edgeStyle=orthogonalEdgeStyle;rounded=0;orthogonalLoop=1;jettySize=auto;html=1;" edge="1" parent="1" source="17Se1o1GfbrU2LIGd_qw-68" target="17Se1o1GfbrU2LIGd_qw-72">
          <mxGeometry relative="1" as="geometry" />
        </mxCell>
        <mxCell id="17Se1o1GfbrU2LIGd_qw-68" value="" style="sketch=0;pointerEvents=1;shadow=0;dashed=0;html=1;strokeColor=none;fillColor=#505050;labelPosition=center;verticalLabelPosition=bottom;verticalAlign=top;outlineConnect=0;align=center;shape=mxgraph.office.concepts.document;" vertex="1" parent="1">
          <mxGeometry x="427" y="761" width="40" height="47" as="geometry" />
        </mxCell>
        <mxCell id="17Se1o1GfbrU2LIGd_qw-69" style="edgeStyle=orthogonalEdgeStyle;rounded=0;orthogonalLoop=1;jettySize=auto;html=1;" edge="1" parent="1" source="17Se1o1GfbrU2LIGd_qw-63" target="17Se1o1GfbrU2LIGd_qw-68">
          <mxGeometry relative="1" as="geometry" />
        </mxCell>
        <mxCell id="17Se1o1GfbrU2LIGd_qw-70" value="Express compiles data and view template into HTML" style="text;html=1;strokeColor=none;fillColor=none;align=center;verticalAlign=middle;whiteSpace=wrap;rounded=0;" vertex="1" parent="1">
          <mxGeometry x="730" y="740" width="120" height="40" as="geometry" />
        </mxCell>
        <mxCell id="17Se1o1GfbrU2LIGd_qw-71" value="HTML" style="text;html=1;strokeColor=none;fillColor=none;align=center;verticalAlign=middle;whiteSpace=wrap;rounded=0;" vertex="1" parent="1">
          <mxGeometry x="417" y="731" width="60" height="30" as="geometry" />
        </mxCell>
        <mxCell id="17Se1o1GfbrU2LIGd_qw-77" style="edgeStyle=orthogonalEdgeStyle;rounded=0;orthogonalLoop=1;jettySize=auto;html=1;entryX=1;entryY=0.5;entryDx=0;entryDy=0;" edge="1" parent="1" source="17Se1o1GfbrU2LIGd_qw-72" target="17Se1o1GfbrU2LIGd_qw-76">
          <mxGeometry relative="1" as="geometry" />
        </mxCell>
        <mxCell id="17Se1o1GfbrU2LIGd_qw-72" value="" style="image;aspect=fixed;perimeter=ellipsePerimeter;html=1;align=center;shadow=0;dashed=0;fontColor=#4277BB;labelBackgroundColor=default;fontSize=12;spacingTop=3;image=img/lib/ibm/users/browser.svg;" vertex="1" parent="1">
          <mxGeometry x="290" y="754.5" width="60" height="60" as="geometry" />
        </mxCell>
        <mxCell id="17Se1o1GfbrU2LIGd_qw-73" value="Browser" style="text;html=1;strokeColor=none;fillColor=none;align=center;verticalAlign=middle;whiteSpace=wrap;rounded=0;" vertex="1" parent="1">
          <mxGeometry x="290" y="724.5" width="60" height="30" as="geometry" />
        </mxCell>
        <mxCell id="17Se1o1GfbrU2LIGd_qw-75" value="Express returns HTML to browser" style="text;html=1;strokeColor=none;fillColor=none;align=center;verticalAlign=middle;whiteSpace=wrap;rounded=0;" vertex="1" parent="1">
          <mxGeometry x="340" y="701" width="100" height="30" as="geometry" />
        </mxCell>
        <mxCell id="17Se1o1GfbrU2LIGd_qw-81" style="edgeStyle=orthogonalEdgeStyle;rounded=0;orthogonalLoop=1;jettySize=auto;html=1;exitX=0.5;exitY=1;exitDx=0;exitDy=0;" edge="1" parent="1" source="17Se1o1GfbrU2LIGd_qw-76" target="17Se1o1GfbrU2LIGd_qw-80">
          <mxGeometry relative="1" as="geometry" />
        </mxCell>
        <mxCell id="17Se1o1GfbrU2LIGd_qw-76" value="" style="image;html=1;image=img/lib/clip_art/computers/Server_Rack_Empty_128x128.png" vertex="1" parent="1">
          <mxGeometry x="80" y="744.5" width="80" height="80" as="geometry" />
        </mxCell>
        <mxCell id="17Se1o1GfbrU2LIGd_qw-78" value="Server" style="text;html=1;strokeColor=none;fillColor=none;align=center;verticalAlign=middle;whiteSpace=wrap;rounded=0;" vertex="1" parent="1">
          <mxGeometry x="90" y="710" width="60" height="30" as="geometry" />
        </mxCell>
        <mxCell id="17Se1o1GfbrU2LIGd_qw-79" value="Browser requests CSS file referenced in HTML" style="text;html=1;strokeColor=none;fillColor=none;align=center;verticalAlign=middle;whiteSpace=wrap;rounded=0;" vertex="1" parent="1">
          <mxGeometry x="170" y="710" width="100" height="50" as="geometry" />
        </mxCell>
        <mxCell id="17Se1o1GfbrU2LIGd_qw-85" style="edgeStyle=orthogonalEdgeStyle;rounded=0;orthogonalLoop=1;jettySize=auto;html=1;exitX=1;exitY=0.5;exitDx=0;exitDy=0;entryX=0.011;entryY=0.52;entryDx=0;entryDy=0;entryPerimeter=0;" edge="1" parent="1" source="17Se1o1GfbrU2LIGd_qw-80" target="17Se1o1GfbrU2LIGd_qw-83">
          <mxGeometry relative="1" as="geometry" />
        </mxCell>
        <mxCell id="17Se1o1GfbrU2LIGd_qw-80" value="" style="shape=image;html=1;verticalAlign=top;verticalLabelPosition=bottom;labelBackgroundColor=#ffffff;imageAspect=0;aspect=fixed;image=https://cdn2.iconfinder.com/data/icons/boxicons-solid-vol-1/24/bxs-cog-128.png" vertex="1" parent="1">
          <mxGeometry x="73.75" y="890" width="92.5" height="92.5" as="geometry" />
        </mxCell>
        <mxCell id="17Se1o1GfbrU2LIGd_qw-82" value="Express runs request through all middleware" style="text;html=1;strokeColor=none;fillColor=none;align=center;verticalAlign=middle;whiteSpace=wrap;rounded=0;" vertex="1" parent="1">
          <mxGeometry y="830" width="110" height="40" as="geometry" />
        </mxCell>
        <mxCell id="17Se1o1GfbrU2LIGd_qw-90" style="edgeStyle=orthogonalEdgeStyle;rounded=0;orthogonalLoop=1;jettySize=auto;html=1;" edge="1" parent="1" source="17Se1o1GfbrU2LIGd_qw-83" target="17Se1o1GfbrU2LIGd_qw-89">
          <mxGeometry relative="1" as="geometry" />
        </mxCell>
        <mxCell id="17Se1o1GfbrU2LIGd_qw-83" value="" style="html=1;verticalLabelPosition=bottom;align=center;labelBackgroundColor=#ffffff;verticalAlign=top;strokeWidth=2;strokeColor=#0080F0;shadow=0;dashed=0;shape=mxgraph.ios7.icons.folder;" vertex="1" parent="1">
          <mxGeometry x="265" y="910" width="90" height="50" as="geometry" />
        </mxCell>
        <mxCell id="17Se1o1GfbrU2LIGd_qw-84" value="Middleware" style="text;html=1;strokeColor=none;fillColor=none;align=center;verticalAlign=middle;whiteSpace=wrap;rounded=0;" vertex="1" parent="1">
          <mxGeometry x="90" y="983" width="60" height="30" as="geometry" />
        </mxCell>
        <mxCell id="17Se1o1GfbrU2LIGd_qw-86" value="Static folder" style="text;html=1;strokeColor=none;fillColor=none;align=center;verticalAlign=middle;whiteSpace=wrap;rounded=0;" vertex="1" parent="1">
          <mxGeometry x="280" y="970" width="60" height="30" as="geometry" />
        </mxCell>
        <mxCell id="17Se1o1GfbrU2LIGd_qw-87" value="In middleware, Express matches request to a file path in a specified static folder" style="text;html=1;strokeColor=none;fillColor=none;align=center;verticalAlign=middle;whiteSpace=wrap;rounded=0;" vertex="1" parent="1">
          <mxGeometry x="160" y="970" width="110" height="40" as="geometry" />
        </mxCell>
        <mxCell id="17Se1o1GfbrU2LIGd_qw-94" style="edgeStyle=orthogonalEdgeStyle;rounded=0;orthogonalLoop=1;jettySize=auto;html=1;entryX=0;entryY=0.5;entryDx=0;entryDy=0;" edge="1" parent="1" source="17Se1o1GfbrU2LIGd_qw-89" target="17Se1o1GfbrU2LIGd_qw-93">
          <mxGeometry relative="1" as="geometry" />
        </mxCell>
        <mxCell id="17Se1o1GfbrU2LIGd_qw-89" value="" style="sketch=0;pointerEvents=1;shadow=0;dashed=0;html=1;strokeColor=none;fillColor=#505050;labelPosition=center;verticalLabelPosition=bottom;verticalAlign=top;outlineConnect=0;align=center;shape=mxgraph.office.concepts.document;" vertex="1" parent="1">
          <mxGeometry x="430" y="911.5" width="40" height="47" as="geometry" />
        </mxCell>
        <mxCell id="17Se1o1GfbrU2LIGd_qw-91" value="CSS" style="text;html=1;strokeColor=none;fillColor=none;align=center;verticalAlign=middle;whiteSpace=wrap;rounded=0;" vertex="1" parent="1">
          <mxGeometry x="417" y="880" width="60" height="30" as="geometry" />
        </mxCell>
        <mxCell id="17Se1o1GfbrU2LIGd_qw-92" value="Express returns CSS file to browser asynchronously" style="text;html=1;strokeColor=none;fillColor=none;align=center;verticalAlign=middle;whiteSpace=wrap;rounded=0;" vertex="1" parent="1">
          <mxGeometry x="400" y="978" width="110" height="40" as="geometry" />
        </mxCell>
        <mxCell id="17Se1o1GfbrU2LIGd_qw-99" style="edgeStyle=orthogonalEdgeStyle;rounded=0;orthogonalLoop=1;jettySize=auto;html=1;entryX=0;entryY=0.5;entryDx=0;entryDy=0;entryPerimeter=0;" edge="1" parent="1" source="17Se1o1GfbrU2LIGd_qw-93" target="17Se1o1GfbrU2LIGd_qw-43">
          <mxGeometry relative="1" as="geometry" />
        </mxCell>
        <mxCell id="17Se1o1GfbrU2LIGd_qw-93" value="" style="image;aspect=fixed;perimeter=ellipsePerimeter;html=1;align=center;shadow=0;dashed=0;fontColor=#4277BB;labelBackgroundColor=default;fontSize=12;spacingTop=3;image=img/lib/ibm/users/browser.svg;" vertex="1" parent="1">
          <mxGeometry x="560" y="905" width="60" height="60" as="geometry" />
        </mxCell>
        <mxCell id="17Se1o1GfbrU2LIGd_qw-95" value="Browser completes rendering of web page" style="text;html=1;strokeColor=none;fillColor=none;align=center;verticalAlign=middle;whiteSpace=wrap;rounded=0;" vertex="1" parent="1">
          <mxGeometry x="535" y="973" width="110" height="40" as="geometry" />
        </mxCell>
        <mxCell id="17Se1o1GfbrU2LIGd_qw-100" style="edgeStyle=orthogonalEdgeStyle;rounded=0;orthogonalLoop=1;jettySize=auto;html=1;entryX=0;entryY=0.5;entryDx=0;entryDy=0;" edge="1" parent="1" source="17Se1o1GfbrU2LIGd_qw-96" target="17Se1o1GfbrU2LIGd_qw-44">
          <mxGeometry relative="1" as="geometry" />
        </mxCell>
        <mxCell id="17Se1o1GfbrU2LIGd_qw-96" value="" style="outlineConnect=0;dashed=0;verticalLabelPosition=bottom;verticalAlign=top;align=center;html=1;shape=mxgraph.aws3.users;fillColor=#D2D3D3;gradientColor=none;" vertex="1" parent="1">
          <mxGeometry x="65" y="590" width="66" height="63" as="geometry" />
        </mxCell>
        <mxCell id="17Se1o1GfbrU2LIGd_qw-97" value="Browser" style="text;html=1;strokeColor=none;fillColor=none;align=center;verticalAlign=middle;whiteSpace=wrap;rounded=0;" vertex="1" parent="1">
          <mxGeometry x="560" y="875" width="60" height="30" as="geometry" />
        </mxCell>
        <mxCell id="17Se1o1GfbrU2LIGd_qw-98" value="Visitor" style="text;html=1;strokeColor=none;fillColor=none;align=center;verticalAlign=middle;whiteSpace=wrap;rounded=0;" vertex="1" parent="1">
          <mxGeometry x="720" y="870" width="60" height="30" as="geometry" />
        </mxCell>
        <mxCell id="17Se1o1GfbrU2LIGd_qw-129" value="" style="group" vertex="1" connectable="0" parent="1">
          <mxGeometry x="64.2" y="1290" width="580.8" height="380" as="geometry" />
        </mxCell>
        <mxCell id="17Se1o1GfbrU2LIGd_qw-107" value="" style="image;aspect=fixed;perimeter=ellipsePerimeter;html=1;align=center;shadow=0;dashed=0;spacingTop=3;image=img/lib/active_directory/users.svg;" vertex="1" parent="17Se1o1GfbrU2LIGd_qw-129">
          <mxGeometry y="70" width="85.8" height="130" as="geometry" />
        </mxCell>
        <mxCell id="17Se1o1GfbrU2LIGd_qw-108" value="" style="sketch=0;aspect=fixed;pointerEvents=1;shadow=0;dashed=0;html=1;strokeColor=none;labelPosition=center;verticalLabelPosition=bottom;verticalAlign=top;align=center;fillColor=#00188D;shape=mxgraph.mscae.enterprise.router" vertex="1" parent="17Se1o1GfbrU2LIGd_qw-129">
          <mxGeometry x="175.8" y="80" width="57.69" height="45" as="geometry" />
        </mxCell>
        <mxCell id="17Se1o1GfbrU2LIGd_qw-115" style="edgeStyle=orthogonalEdgeStyle;rounded=0;orthogonalLoop=1;jettySize=auto;html=1;exitX=1;exitY=0.25;exitDx=0;exitDy=0;entryX=0.13;entryY=0.5;entryDx=0;entryDy=0;entryPerimeter=0;" edge="1" parent="17Se1o1GfbrU2LIGd_qw-129" source="17Se1o1GfbrU2LIGd_qw-107" target="17Se1o1GfbrU2LIGd_qw-108">
          <mxGeometry relative="1" as="geometry" />
        </mxCell>
        <mxCell id="17Se1o1GfbrU2LIGd_qw-109" value="" style="image;points=[];aspect=fixed;html=1;align=center;shadow=0;dashed=0;image=img/lib/allied_telesis/computer_and_terminals/Server_Desktop.svg;" vertex="1" parent="17Se1o1GfbrU2LIGd_qw-129">
          <mxGeometry x="320.8" y="59.5" width="80.47" height="102" as="geometry" />
        </mxCell>
        <mxCell id="17Se1o1GfbrU2LIGd_qw-113" style="edgeStyle=orthogonalEdgeStyle;rounded=0;orthogonalLoop=1;jettySize=auto;html=1;exitX=0;exitY=0.755;exitDx=0;exitDy=0;entryX=1;entryY=0.75;entryDx=0;entryDy=0;exitPerimeter=0;" edge="1" parent="17Se1o1GfbrU2LIGd_qw-129" source="17Se1o1GfbrU2LIGd_qw-109" target="17Se1o1GfbrU2LIGd_qw-107">
          <mxGeometry relative="1" as="geometry" />
        </mxCell>
        <mxCell id="17Se1o1GfbrU2LIGd_qw-114" style="edgeStyle=orthogonalEdgeStyle;rounded=0;orthogonalLoop=1;jettySize=auto;html=1;exitX=0.87;exitY=0.5;exitDx=0;exitDy=0;exitPerimeter=0;entryX=-0.037;entryY=0.471;entryDx=0;entryDy=0;entryPerimeter=0;" edge="1" parent="17Se1o1GfbrU2LIGd_qw-129" source="17Se1o1GfbrU2LIGd_qw-108" target="17Se1o1GfbrU2LIGd_qw-109">
          <mxGeometry relative="1" as="geometry" />
        </mxCell>
        <mxCell id="17Se1o1GfbrU2LIGd_qw-110" value="" style="image;aspect=fixed;perimeter=ellipsePerimeter;html=1;align=center;shadow=0;dashed=0;spacingTop=3;image=img/lib/active_directory/databases.svg;" vertex="1" parent="17Se1o1GfbrU2LIGd_qw-129">
          <mxGeometry x="505.29" y="73.5" width="75.51" height="74" as="geometry" />
        </mxCell>
        <mxCell id="17Se1o1GfbrU2LIGd_qw-111" value="" style="fontColor=#0066CC;verticalAlign=top;verticalLabelPosition=bottom;labelPosition=center;align=center;html=1;outlineConnect=0;fillColor=#CCCCCC;strokeColor=#6881B3;gradientColor=none;gradientDirection=north;strokeWidth=2;shape=mxgraph.networks.monitor;" vertex="1" parent="17Se1o1GfbrU2LIGd_qw-129">
          <mxGeometry x="325.8" y="260" width="80" height="65" as="geometry" />
        </mxCell>
        <mxCell id="17Se1o1GfbrU2LIGd_qw-112" value="" style="endArrow=classic;startArrow=classic;html=1;rounded=0;exitX=0.5;exitY=0;exitDx=0;exitDy=0;exitPerimeter=0;" edge="1" parent="17Se1o1GfbrU2LIGd_qw-129" source="17Se1o1GfbrU2LIGd_qw-111">
          <mxGeometry width="50" height="50" relative="1" as="geometry">
            <mxPoint x="205.8" y="260" as="sourcePoint" />
            <mxPoint x="365.8" y="170" as="targetPoint" />
          </mxGeometry>
        </mxCell>
        <mxCell id="17Se1o1GfbrU2LIGd_qw-116" value="" style="endArrow=classic;startArrow=classic;html=1;rounded=0;entryX=0;entryY=0.5;entryDx=0;entryDy=0;" edge="1" parent="17Se1o1GfbrU2LIGd_qw-129" source="17Se1o1GfbrU2LIGd_qw-109" target="17Se1o1GfbrU2LIGd_qw-110">
          <mxGeometry width="50" height="50" relative="1" as="geometry">
            <mxPoint x="375.8" y="270" as="sourcePoint" />
            <mxPoint x="371.8" y="172" as="targetPoint" />
          </mxGeometry>
        </mxCell>
        <mxCell id="17Se1o1GfbrU2LIGd_qw-117" value="&lt;div style=&quot;text-align: justify;&quot;&gt;&lt;span style=&quot;background-color: initial;&quot;&gt;1. Request comes into application&lt;/span&gt;&lt;/div&gt;" style="text;html=1;strokeColor=none;fillColor=none;align=left;verticalAlign=middle;whiteSpace=wrap;rounded=0;" vertex="1" parent="17Se1o1GfbrU2LIGd_qw-129">
          <mxGeometry x="3.799999999999997" y="10" width="102" height="30" as="geometry" />
        </mxCell>
        <mxCell id="17Se1o1GfbrU2LIGd_qw-118" value="&lt;div style=&quot;text-align: justify;&quot;&gt;&lt;span style=&quot;background-color: initial;&quot;&gt;2. Request gets routed to controller&lt;/span&gt;&lt;/div&gt;" style="text;html=1;strokeColor=none;fillColor=none;align=left;verticalAlign=middle;whiteSpace=wrap;rounded=0;" vertex="1" parent="17Se1o1GfbrU2LIGd_qw-129">
          <mxGeometry x="175.8" width="140" height="40" as="geometry" />
        </mxCell>
        <mxCell id="17Se1o1GfbrU2LIGd_qw-120" value="&lt;div style=&quot;text-align: justify;&quot;&gt;&lt;span style=&quot;background-color: initial;&quot;&gt;Request&lt;/span&gt;&lt;/div&gt;" style="text;html=1;strokeColor=none;fillColor=none;align=left;verticalAlign=middle;whiteSpace=wrap;rounded=0;" vertex="1" parent="17Se1o1GfbrU2LIGd_qw-129">
          <mxGeometry x="105.8" y="70" width="50" height="30" as="geometry" />
        </mxCell>
        <mxCell id="17Se1o1GfbrU2LIGd_qw-121" value="&lt;div style=&quot;text-align: justify;&quot;&gt;&lt;span style=&quot;background-color: initial;&quot;&gt;Request&lt;/span&gt;&lt;/div&gt;" style="text;html=1;strokeColor=none;fillColor=none;align=left;verticalAlign=middle;whiteSpace=wrap;rounded=0;" vertex="1" parent="17Se1o1GfbrU2LIGd_qw-129">
          <mxGeometry x="255.8" y="70" width="50" height="30" as="geometry" />
        </mxCell>
        <mxCell id="17Se1o1GfbrU2LIGd_qw-122" value="&lt;div style=&quot;text-align: justify;&quot;&gt;&lt;span style=&quot;background-color: initial;&quot;&gt;Request&lt;/span&gt;&lt;/div&gt;" style="text;html=1;strokeColor=none;fillColor=none;align=left;verticalAlign=middle;whiteSpace=wrap;rounded=0;" vertex="1" parent="17Se1o1GfbrU2LIGd_qw-129">
          <mxGeometry x="435.8" y="70" width="50" height="30" as="geometry" />
        </mxCell>
        <mxCell id="17Se1o1GfbrU2LIGd_qw-123" value="&lt;div style=&quot;text-align: justify;&quot;&gt;&lt;span style=&quot;background-color: initial;&quot;&gt;3. Controller may send request to model&lt;/span&gt;&lt;/div&gt;" style="text;html=1;strokeColor=none;fillColor=none;align=left;verticalAlign=middle;whiteSpace=wrap;rounded=0;" vertex="1" parent="17Se1o1GfbrU2LIGd_qw-129">
          <mxGeometry x="425.8" y="5" width="130" height="40" as="geometry" />
        </mxCell>
        <mxCell id="17Se1o1GfbrU2LIGd_qw-124" value="&lt;div style=&quot;text-align: justify;&quot;&gt;&lt;span style=&quot;background-color: initial;&quot;&gt;4. Model respond to controller&lt;/span&gt;&lt;/div&gt;" style="text;html=1;strokeColor=none;fillColor=none;align=left;verticalAlign=middle;whiteSpace=wrap;rounded=0;" vertex="1" parent="17Se1o1GfbrU2LIGd_qw-129">
          <mxGeometry x="435.8" y="190" width="110" height="40" as="geometry" />
        </mxCell>
        <mxCell id="17Se1o1GfbrU2LIGd_qw-125" value="&lt;div style=&quot;text-align: justify;&quot;&gt;&lt;span style=&quot;background-color: initial;&quot;&gt;Response&lt;/span&gt;&lt;/div&gt;" style="text;html=1;strokeColor=none;fillColor=none;align=left;verticalAlign=middle;whiteSpace=wrap;rounded=0;" vertex="1" parent="17Se1o1GfbrU2LIGd_qw-129">
          <mxGeometry x="435.8" y="125" width="50" height="30" as="geometry" />
        </mxCell>
        <mxCell id="17Se1o1GfbrU2LIGd_qw-126" value="&lt;div style=&quot;text-align: justify;&quot;&gt;&lt;span style=&quot;background-color: initial;&quot;&gt;Response&lt;/span&gt;&lt;/div&gt;" style="text;html=1;strokeColor=none;fillColor=none;align=left;verticalAlign=middle;whiteSpace=wrap;rounded=0;" vertex="1" parent="17Se1o1GfbrU2LIGd_qw-129">
          <mxGeometry x="150.8" y="170" width="50" height="30" as="geometry" />
        </mxCell>
        <mxCell id="17Se1o1GfbrU2LIGd_qw-127" value="&lt;div style=&quot;text-align: justify;&quot;&gt;&lt;span style=&quot;background-color: initial;&quot;&gt;5. Controller merges data with view&lt;/span&gt;&lt;/div&gt;" style="text;html=1;strokeColor=none;fillColor=none;align=left;verticalAlign=middle;whiteSpace=wrap;rounded=0;" vertex="1" parent="17Se1o1GfbrU2LIGd_qw-129">
          <mxGeometry x="315.8" y="340" width="140" height="40" as="geometry" />
        </mxCell>
        <mxCell id="17Se1o1GfbrU2LIGd_qw-128" value="&lt;div style=&quot;text-align: justify;&quot;&gt;6. Controller sends response to requestor&lt;/div&gt;" style="text;html=1;strokeColor=none;fillColor=none;align=left;verticalAlign=middle;whiteSpace=wrap;rounded=0;" vertex="1" parent="17Se1o1GfbrU2LIGd_qw-129">
          <mxGeometry x="15.799999999999997" y="220" width="120" height="40" as="geometry" />
        </mxCell>
        <mxCell id="17Se1o1GfbrU2LIGd_qw-130" value="&lt;p class=&quot;p1&quot;&gt;Request-response flow of a basic MVC architecture&lt;/p&gt;" style="text;whiteSpace=wrap;html=1;" vertex="1" parent="1">
          <mxGeometry x="65" y="1230" width="240" height="50" as="geometry" />
        </mxCell>
      </root>
    </mxGraphModel>
  </diagram>
</mxfile>
